<svg width="124" height="45" viewBox="0 0 124 45" fill="none" xmlns="http://www.w3.org/2000/svg">
<g clip-path="url(#clip0_687_5519)">
<path d="M114.966 19.7645L114.877 19.7204C112.309 18.9262 109.651 18.1321 109.651 16.8527V16.7645C109.651 15.4409 111.024 14.5586 113.017 14.5586C115.01 14.5586 117.357 15.3527 119.483 16.6762L120.634 17.4262L123.646 12.4851L122.583 11.7792C119.837 9.97036 116.339 8.91154 113.15 8.91154C109.917 8.91154 107.26 10.0145 105.577 11.9115C105.134 11.1615 104.647 10.4557 104.071 9.74977C100.883 5.73506 96.3214 3.088 91.2729 2.24977C90.8743 1.19095 89.9443 0.440947 88.7929 0.308594C88.7043 0.308594 88.5714 0.308594 88.4829 0.308594H88.4386C87.7743 0.308594 87.1543 0.529182 86.6229 0.970358C86.0029 1.45565 85.6043 2.16154 85.5157 2.95565C85.4272 3.74977 85.6486 4.54389 86.1357 5.16154C86.6229 5.77918 87.3314 6.17624 88.1286 6.26448C89.3243 6.39683 90.52 5.8233 91.0957 4.76448C95.48 5.51448 99.3771 7.85271 102.123 11.2939C107.614 18.1762 107.216 28.1027 101.281 34.5439C100.573 34.3233 99.82 34.2792 99.1114 34.4998L97.9157 32.9998L97.5614 32.6027C97.5614 32.6027 97.5614 32.6027 97.5172 32.5586C100.219 29.9998 101.901 26.4262 101.901 22.4115C101.901 14.6909 95.6129 8.47036 87.9071 8.47036C84.94 8.47036 82.15 9.39683 79.8914 10.9851L80.1571 10.7645L78.6514 8.86742C79.4043 7.67624 79.3157 6.13212 78.3857 4.98506C77.2343 3.52918 75.0643 3.26448 73.5586 4.41153C72.23 5.42624 71.8757 7.23506 72.6729 8.69095C71.3886 10.0586 70.37 11.6468 69.5286 13.2792C69.3071 13.0145 69.0857 12.7498 68.82 12.4851C66.2514 9.79389 63.1072 8.38212 59.4314 8.29389C55.6229 8.16153 52.3014 9.48506 49.5114 12.2645C46.7657 14.9998 45.3486 18.3086 45.3486 22.1027V39.9262H51.1057V33.3968C53.2757 34.9851 55.8 35.8674 58.6343 35.9557C62.4429 36.088 65.7643 34.7645 68.51 31.9851C68.7757 31.7204 69.0414 31.4557 69.2629 31.1468C69.9271 32.5586 70.7686 33.9262 71.7429 35.1615C74.9314 39.1762 79.4929 41.8233 84.5414 42.6615C84.94 43.7204 85.87 44.4704 87.0214 44.6027C87.1543 44.6027 87.2429 44.6027 87.3757 44.6027C88.8814 44.6027 90.1657 43.4998 90.3429 41.9557C90.52 40.3233 89.3686 38.8233 87.6857 38.6468C86.49 38.5145 85.2943 39.088 84.7186 40.1468C80.3343 39.3968 76.4371 37.0586 73.6914 33.6174C72.4957 32.1174 71.5657 30.4409 70.9457 28.7204C72.0529 26.7351 72.5843 24.4851 72.5843 22.1027C72.5843 19.8086 72.0971 17.7351 71.1229 15.7939C71.92 13.8086 73.0271 11.9557 74.5329 10.3674C75.2414 10.588 75.9943 10.6321 76.7029 10.4115L78.0757 12.1762C78.12 12.2645 78.12 12.3086 78.1643 12.3527C78.1643 12.3527 78.1643 12.3527 78.2086 12.3968C75.5071 14.9557 73.8243 18.5292 73.8243 22.5439C73.8243 30.2645 80.1129 36.4851 87.8186 36.4851C90.6529 36.4851 93.31 35.6468 95.48 34.191C95.48 34.191 95.48 34.1909 95.48 34.2351C95.5243 34.2792 95.5686 34.3233 95.6571 34.3674L97.03 36.1321C96.2771 37.3233 96.3657 38.8674 97.2957 40.0145C97.96 40.8527 98.9786 41.2939 99.9971 41.2939C100.75 41.2939 101.503 41.0733 102.123 40.5439C103.451 39.5292 103.806 37.6762 103.009 36.2645C103.629 35.6027 104.204 34.8527 104.691 34.1027C107.349 35.6468 110.581 36.6174 113.593 36.6174C119.439 36.6174 123.513 33.088 123.513 28.0586V27.9704C123.69 22.3674 118.199 20.7351 114.966 19.7645ZM64.4357 27.8821C62.8857 29.4262 61.07 30.1762 58.8557 30.1762C56.73 30.1762 54.9586 29.4262 53.4529 27.8821C51.9472 26.338 51.15 24.4851 51.1057 22.2792C51.0614 19.9851 51.8143 18.0439 53.4529 16.3233C54.9586 14.7351 56.6857 13.9851 58.7672 13.9851C58.9 13.9851 59.0772 13.9851 59.21 13.9851C61.3357 14.0733 63.1071 14.8674 64.5686 16.4998C66.0743 18.1321 66.7829 20.0292 66.7829 22.2351C66.7829 24.4851 65.9857 26.338 64.4357 27.8821ZM96.3657 22.8968C96.3657 22.9409 96.3657 22.9851 96.3657 22.9851C96.3657 23.1174 96.3657 23.2057 96.3214 23.338C96.3214 23.3821 96.3214 23.4262 96.3214 23.4262C96.3214 23.5586 96.2771 23.6468 96.2771 23.7792C96.2771 23.8233 96.2771 23.8233 96.2771 23.8674C96.2771 23.9998 96.2329 24.088 96.2329 24.2204V24.2645C96.1886 24.3968 96.1886 24.5292 96.1443 24.6174C96.1443 24.6174 96.1443 24.6174 96.1443 24.6615C96.1 24.7939 96.0557 24.9262 96.0114 25.0586C95.2143 27.441 93.3986 29.3821 91.0514 30.2645C90.6971 30.3968 90.2986 30.5292 89.9 30.6174C89.8557 30.6174 89.8557 30.6174 89.8114 30.6174C89.4571 30.7057 89.0586 30.7498 88.66 30.7939C88.6157 30.7939 88.5714 30.7939 88.5271 30.7939C88.35 30.7939 88.1286 30.7939 87.9514 30.7939C83.3014 30.7939 79.4929 27.0439 79.4929 22.3674C79.4929 22.2351 79.4929 22.0586 79.4929 21.9262C79.4929 21.8821 79.4929 21.838 79.4929 21.838C79.4929 21.7057 79.4929 21.6174 79.5371 21.4851C79.5371 21.4409 79.5371 21.3968 79.5371 21.3968C79.5371 21.2645 79.5814 21.1762 79.5814 21.0439C79.5814 20.9998 79.5814 20.9998 79.5814 20.9557C79.5814 20.8233 79.6257 20.7351 79.6257 20.6027V20.5586C79.67 20.4262 79.67 20.2939 79.7143 20.2057C79.7143 20.2057 79.7143 20.2057 79.7143 20.1615C79.7586 20.0292 79.8029 19.8968 79.8471 19.7645C80.6443 17.3821 82.46 15.4409 84.8071 14.5586C85.1614 14.4262 85.56 14.2939 85.9586 14.2057C86.0029 14.2057 86.0029 14.2057 86.0471 14.2057C86.4014 14.1174 86.8 14.0733 87.1986 14.0292C87.2429 14.0292 87.2872 14.0292 87.3314 14.0292C87.5086 14.0292 87.73 14.0292 87.9071 14.0292C87.9957 14.0292 88.04 14.0292 88.1286 14.0292C92.69 14.1615 96.3657 17.8674 96.3657 22.4115C96.3657 22.588 96.3657 22.7645 96.3657 22.8968ZM117.623 28.3674C117.623 30.088 115.763 30.8821 113.947 30.8821C111.821 30.8821 109.607 30.1762 107.481 28.8086C108.013 27.2204 108.323 25.5439 108.456 23.8674C109.829 24.4851 111.334 24.9262 112.574 25.2792C115.851 26.2057 117.667 26.9557 117.667 28.2792V28.3674H117.623Z" fill="url(#paint0_linear_687_5519)"/>
<path d="M35.34 19.1029L35.2514 19.0588C32.6829 18.2647 30.0257 17.4706 30.0257 16.1912V16.1029C30.0257 14.7794 31.3986 13.8971 33.3914 13.8971C35.3843 13.8971 37.7314 14.6912 39.8571 16.0147L41.0086 16.7647L44.02 11.8235L42.9571 11.1176C40.2114 9.30882 36.6686 8.25 33.5243 8.25C27.9 8.25 23.9586 11.6471 23.9586 16.4559V16.5441C23.9586 22.1029 29.3614 23.6029 32.9486 24.6176C36.2257 25.5441 38.0414 26.2941 38.0414 27.6176V27.7059C38.0414 29.4265 36.1814 30.2206 34.3657 30.2206C31.8857 30.2206 29.2286 29.25 26.7929 27.3971L25.73 26.6029L22.4086 31.2794L23.3829 32.0735C26.3057 34.4559 30.4686 35.9118 34.2329 35.9118C40.0786 35.9118 44.1529 32.3824 44.1529 27.3529V27.2647C44.0643 21.7059 38.6171 20.0735 35.34 19.1029Z" fill="#404041"/>
<path d="M10.6286 35.9116C13.8172 35.9116 18.0243 35.2939 20.2829 32.2939C21.2572 30.9704 21.7886 29.4704 21.7886 27.7498C21.7886 25.191 20.0614 22.7645 17.67 22.0145H17.6257V21.2204H17.67C19.7514 20.5587 21.2572 18.3528 21.2572 16.0145C21.2572 14.2498 20.7257 13.191 19.84 11.9998C18.0243 9.66159 14.7029 8.29395 10.8943 8.29395C7.70574 8.29395 4.96002 9.22042 3.01145 10.941C1.46145 12.3528 0.531454 14.2939 0.26574 16.7645H5.93431C6.37716 14.3381 8.06003 13.0145 10.8943 13.0145C13.02 13.0145 15.1457 14.0292 15.1457 16.3675C15.1457 18.441 13.8615 19.4998 11.3372 19.4998H9.74288V24.0881H11.3372C14.26 24.0881 15.7657 25.191 15.7657 27.441C15.7657 30.0881 13.1972 31.0145 10.85 31.0145C8.06002 31.0145 6.20003 29.691 5.80145 27.441H0.0443115C0.310026 29.7351 1.06288 31.4116 2.43574 32.7792C4.34002 34.7204 7.35145 35.9116 10.6286 35.9116Z" fill="#404041"/>
</g>
<defs>
<linearGradient id="paint0_linear_687_5519" x1="45.403" y1="22.4499" x2="123.67" y2="22.4499" gradientUnits="userSpaceOnUse">
<stop stop-color="#B6228C"/>
<stop offset="1" stop-color="#8D2BC6"/>
</linearGradient>
<clipPath id="clip0_687_5519">
<rect width="124" height="45" fill="white"/>
</clipPath>
</defs>
</svg>
