<?xml version="1.0" encoding="UTF-8"?><svg id="Layer_2" xmlns="http://www.w3.org/2000/svg" viewBox="0 0 44.22 54.2"><defs><style>.cls-1{fill:#e51f59;}.cls-2{fill:#fff;}</style></defs><g id="Layer_1-2"><g id="_4-pointOne-With-Kurve-Logo-S"><rect class="cls-1" width="44.22" height="44.22"/><path class="cls-2" d="M17.98,27.97v-7.44c0-.27-.22-.5-.5-.5s-.5.22-.5.5v7.44c0,.27.22.5.5.5s.5-.22.5-.5"/><path class="cls-2" d="M7.68,20.09h-1.88c-.27,0-.5.22-.5.5v7.39c0,.27.22.5.5.5s.5-.22.5-.5v-3.35h1.38c1.25,0,2.27-1.02,2.27-2.27s-1.02-2.27-2.27-2.27M7.68,23.62h-1.38v-2.54h1.38c.7,0,1.27.57,1.27,1.27s-.57,1.27-1.27,1.27"/><path class="cls-2" d="M15.4,30.93c-.27,0-.5.22-.5.5v5.2c-.93-2-2.23-4.79-2.32-5.01-.2-.46-.47-.64-.55-.68-.15-.08-.34-.08-.49,0-.15.09-.24.25-.24.43v7.44c0,.27.22.5.5.5s.5-.22.5-.5v-5.46c.93,2,2.57,5.53,2.66,5.73.08.18.26.29.45.29.04,0,.07,0,.11-.01.23-.05.39-.25.39-.49v-7.44c0-.28-.22-.5-.5-.5"/><path class="cls-2" d="M23.74,20.09c-.27,0-.5.22-.5.5v5.2c-.93-2-2.23-4.79-2.32-5.01-.2-.46-.47-.64-.55-.68-.15-.08-.34-.08-.49,0-.15.09-.24.25-.24.43v7.44c0,.27.22.5.5.5s.5-.22.5-.5v-5.46c.93,2,2.57,5.53,2.66,5.73.08.18.26.29.45.29.04,0,.07,0,.11-.01.23-.05.39-.25.39-.49v-7.44c0-.28-.22-.5-.5-.5"/><path class="cls-2" d="M29.54,20.16h-3.61c-.27,0-.5.22-.5.5s.22.5.5.5h1.27v6.82c0,.28.22.5.5.5s.5-.22.5-.5v-6.82h1.35c.27,0,.5-.22.5-.5s-.22-.5-.5-.5"/><path class="cls-2" d="M13.18,28.47c1.27,0,2.31-1.04,2.31-2.31v-3.76c0-1.27-1.04-2.31-2.31-2.31s-2.31,1.04-2.31,2.31v3.76c0,1.27,1.04,2.31,2.31,2.31M11.86,22.4c0-.73.59-1.32,1.32-1.32s1.32.59,1.32,1.32v3.76c0,.73-.59,1.32-1.32,1.32s-1.32-.59-1.32-1.32v-3.76Z"/><path class="cls-2" d="M7.46,30.84c-1.27,0-2.31,1.04-2.31,2.31v3.76c0,1.27,1.04,2.31,2.31,2.31s2.31-1.04,2.31-2.31v-3.76c0-1.27-1.04-2.31-2.31-2.31M8.78,36.91c0,.73-.59,1.32-1.32,1.32s-1.32-.59-1.32-1.32v-3.76c0-.73.59-1.32,1.32-1.32s1.32.59,1.32,1.32v3.76Z"/><path class="cls-2" d="M21.72,38.05h-3.19v-2.67h2.17c.27,0,.5-.22.5-.5s-.22-.5-.5-.5h-2.17v-2.51h3.11c.27,0,.5-.22.5-.5s-.22-.5-.5-.5h-3.61c-.27,0-.5.22-.5.5v7.17c0,.27.22.5.5.5h3.69c.27,0,.5-.22.5-.5s-.22-.5-.5-.5"/><path d="M0,54.12v-4.92h2.42c.9,0,1.4.56,1.4,1.25,0,.62-.4,1.03-.86,1.13.52.08.95.6.95,1.21,0,.76-.51,1.33-1.43,1.33H0ZM.86,51.23h1.38c.44,0,.69-.27.69-.63s-.25-.64-.69-.64H.86v1.28ZM.86,53.36h1.42c.47,0,.75-.26.75-.68,0-.37-.26-.68-.75-.68H.86v1.36Z"/><path d="M7.42,54.12v-2.04l-1.91-2.87h.99l1.36,2.11,1.34-2.11h.99l-1.9,2.87v2.04h-.86Z"/><path d="M18.51,54.12l-1.65-2.07-.43.5v1.57h-.86v-4.92h.86v2.34l1.92-2.34h1.07l-2,2.32,2.15,2.59h-1.06Z"/><path d="M21.62,49.2h.87v2.95c0,.78.44,1.29,1.26,1.29s1.25-.51,1.25-1.29v-2.95h.87v2.97c0,1.22-.7,2.03-2.12,2.03s-2.13-.82-2.13-2.03v-2.98Z"/><path d="M31.2,54.12l-1.09-1.84h-.86v1.84h-.86v-4.92h2.16c.97,0,1.61.63,1.61,1.54s-.57,1.35-1.16,1.44l1.2,1.93h-.99ZM30.43,49.96h-1.18v1.56h1.18c.49,0,.84-.31.84-.78s-.35-.78-.84-.78Z"/><path d="M35.84,54.12l-1.93-4.92h.98l1.49,3.98,1.49-3.98h.98l-1.93,4.92h-1.08Z"/><path d="M40.86,54.12v-4.92h3.37v.76h-2.51v1.28h2.45v.76h-2.45v1.36h2.51v.76h-3.37Z"/></g></g></svg>